<mxfile host="app.diagrams.net" agent="Mozilla/5.0 (X11; Linux x86_64) AppleWebKit/537.36 (KHTML, like Gecko) Chrome/135.0.0.0 Safari/537.36" version="26.2.9">
  <diagram name="Page-1" id="2wr5exxFCU3pFQ6HXGEe">
    <mxGraphModel dx="1428" dy="791" grid="1" gridSize="10" guides="1" tooltips="1" connect="1" arrows="1" fold="1" page="1" pageScale="1" pageWidth="827" pageHeight="1169" math="0" shadow="0">
      <root>
        <mxCell id="0" />
        <mxCell id="1" parent="0" />
        <mxCell id="Vlcp4dhbfAfBj5x9tp1u-11" value="" style="triangle;whiteSpace=wrap;html=1;" vertex="1" parent="1">
          <mxGeometry x="240" y="130" width="60" height="120" as="geometry" />
        </mxCell>
        <mxCell id="Vlcp4dhbfAfBj5x9tp1u-21" value="model_1.sh" style="rounded=0;whiteSpace=wrap;html=1;" vertex="1" parent="1">
          <mxGeometry x="330" y="150" width="80" height="40" as="geometry" />
        </mxCell>
        <mxCell id="Vlcp4dhbfAfBj5x9tp1u-22" value="model_2.sh" style="rounded=0;whiteSpace=wrap;html=1;" vertex="1" parent="1">
          <mxGeometry x="330" y="190" width="80" height="40" as="geometry" />
        </mxCell>
        <mxCell id="Vlcp4dhbfAfBj5x9tp1u-23" value="" style="swimlane;startSize=0;" vertex="1" parent="1">
          <mxGeometry x="320" y="120" width="100" height="130" as="geometry" />
        </mxCell>
        <mxCell id="Vlcp4dhbfAfBj5x9tp1u-24" value="&lt;font style=&quot;font-size: 16px;&quot;&gt;Runs&lt;/font&gt;" style="text;html=1;align=center;verticalAlign=middle;whiteSpace=wrap;rounded=0;" vertex="1" parent="Vlcp4dhbfAfBj5x9tp1u-23">
          <mxGeometry x="20" y="10" width="60" height="10" as="geometry" />
        </mxCell>
        <mxCell id="Vlcp4dhbfAfBj5x9tp1u-26" value="pre-processing" style="triangle;whiteSpace=wrap;html=1;" vertex="1" parent="1">
          <mxGeometry x="40" y="260" width="110" height="350" as="geometry" />
        </mxCell>
        <mxCell id="Vlcp4dhbfAfBj5x9tp1u-27" value="post-processing" style="triangle;whiteSpace=wrap;html=1;" vertex="1" parent="1">
          <mxGeometry x="610" y="260" width="110" height="350" as="geometry" />
        </mxCell>
        <mxCell id="Vlcp4dhbfAfBj5x9tp1u-28" value="" style="triangle;whiteSpace=wrap;html=1;" vertex="1" parent="1">
          <mxGeometry x="460" y="130" width="60" height="120" as="geometry" />
        </mxCell>
        <mxCell id="Vlcp4dhbfAfBj5x9tp1u-29" value="pre-run tasks" style="text;html=1;align=center;verticalAlign=middle;whiteSpace=wrap;rounded=0;" vertex="1" parent="1">
          <mxGeometry x="240" y="90" width="60" height="30" as="geometry" />
        </mxCell>
        <mxCell id="Vlcp4dhbfAfBj5x9tp1u-30" value="post-run tasks" style="text;html=1;align=center;verticalAlign=middle;whiteSpace=wrap;rounded=0;" vertex="1" parent="1">
          <mxGeometry x="460" y="90" width="60" height="30" as="geometry" />
        </mxCell>
        <mxCell id="Vlcp4dhbfAfBj5x9tp1u-31" value="" style="swimlane;startSize=0;" vertex="1" parent="1">
          <mxGeometry x="200" y="40" width="360" height="230" as="geometry" />
        </mxCell>
        <mxCell id="Vlcp4dhbfAfBj5x9tp1u-32" value="&lt;font style=&quot;font-size: 20px;&quot;&gt;Batch&lt;/font&gt;" style="text;html=1;align=center;verticalAlign=middle;whiteSpace=wrap;rounded=0;" vertex="1" parent="Vlcp4dhbfAfBj5x9tp1u-31">
          <mxGeometry x="140" y="10" width="60" height="10" as="geometry" />
        </mxCell>
        <mxCell id="Vlcp4dhbfAfBj5x9tp1u-33" value="" style="triangle;whiteSpace=wrap;html=1;" vertex="1" parent="1">
          <mxGeometry x="240" y="380" width="60" height="120" as="geometry" />
        </mxCell>
        <mxCell id="Vlcp4dhbfAfBj5x9tp1u-34" value="model_1.sh" style="rounded=0;whiteSpace=wrap;html=1;" vertex="1" parent="1">
          <mxGeometry x="330" y="400" width="80" height="40" as="geometry" />
        </mxCell>
        <mxCell id="Vlcp4dhbfAfBj5x9tp1u-35" value="model_2.sh" style="rounded=0;whiteSpace=wrap;html=1;" vertex="1" parent="1">
          <mxGeometry x="330" y="440" width="80" height="40" as="geometry" />
        </mxCell>
        <mxCell id="Vlcp4dhbfAfBj5x9tp1u-36" value="" style="swimlane;startSize=0;" vertex="1" parent="1">
          <mxGeometry x="320" y="370" width="100" height="130" as="geometry" />
        </mxCell>
        <mxCell id="Vlcp4dhbfAfBj5x9tp1u-37" value="&lt;font style=&quot;font-size: 16px;&quot;&gt;Runs&lt;/font&gt;" style="text;html=1;align=center;verticalAlign=middle;whiteSpace=wrap;rounded=0;" vertex="1" parent="Vlcp4dhbfAfBj5x9tp1u-36">
          <mxGeometry x="20" y="10" width="60" height="10" as="geometry" />
        </mxCell>
        <mxCell id="Vlcp4dhbfAfBj5x9tp1u-38" value="" style="triangle;whiteSpace=wrap;html=1;" vertex="1" parent="1">
          <mxGeometry x="460" y="380" width="60" height="120" as="geometry" />
        </mxCell>
        <mxCell id="Vlcp4dhbfAfBj5x9tp1u-39" value="pre-run tasks" style="text;html=1;align=center;verticalAlign=middle;whiteSpace=wrap;rounded=0;" vertex="1" parent="1">
          <mxGeometry x="240" y="340" width="60" height="30" as="geometry" />
        </mxCell>
        <mxCell id="Vlcp4dhbfAfBj5x9tp1u-40" value="post-run tasks" style="text;html=1;align=center;verticalAlign=middle;whiteSpace=wrap;rounded=0;" vertex="1" parent="1">
          <mxGeometry x="460" y="340" width="60" height="30" as="geometry" />
        </mxCell>
        <mxCell id="Vlcp4dhbfAfBj5x9tp1u-41" value="" style="swimlane;startSize=0;" vertex="1" parent="1">
          <mxGeometry x="200" y="290" width="360" height="230" as="geometry" />
        </mxCell>
        <mxCell id="Vlcp4dhbfAfBj5x9tp1u-42" value="&lt;font style=&quot;font-size: 20px;&quot;&gt;Batch&lt;/font&gt;" style="text;html=1;align=center;verticalAlign=middle;whiteSpace=wrap;rounded=0;" vertex="1" parent="Vlcp4dhbfAfBj5x9tp1u-41">
          <mxGeometry x="140" y="10" width="60" height="10" as="geometry" />
        </mxCell>
        <mxCell id="Vlcp4dhbfAfBj5x9tp1u-43" value="" style="triangle;whiteSpace=wrap;html=1;" vertex="1" parent="1">
          <mxGeometry x="240" y="630" width="60" height="120" as="geometry" />
        </mxCell>
        <mxCell id="Vlcp4dhbfAfBj5x9tp1u-44" value="model_1.sh" style="rounded=0;whiteSpace=wrap;html=1;" vertex="1" parent="1">
          <mxGeometry x="330" y="650" width="80" height="40" as="geometry" />
        </mxCell>
        <mxCell id="Vlcp4dhbfAfBj5x9tp1u-45" value="model_2.sh" style="rounded=0;whiteSpace=wrap;html=1;" vertex="1" parent="1">
          <mxGeometry x="330" y="690" width="80" height="40" as="geometry" />
        </mxCell>
        <mxCell id="Vlcp4dhbfAfBj5x9tp1u-46" value="" style="swimlane;startSize=0;" vertex="1" parent="1">
          <mxGeometry x="320" y="620" width="100" height="130" as="geometry" />
        </mxCell>
        <mxCell id="Vlcp4dhbfAfBj5x9tp1u-47" value="&lt;font style=&quot;font-size: 16px;&quot;&gt;Runs&lt;/font&gt;" style="text;html=1;align=center;verticalAlign=middle;whiteSpace=wrap;rounded=0;" vertex="1" parent="Vlcp4dhbfAfBj5x9tp1u-46">
          <mxGeometry x="20" y="10" width="60" height="10" as="geometry" />
        </mxCell>
        <mxCell id="Vlcp4dhbfAfBj5x9tp1u-48" value="" style="triangle;whiteSpace=wrap;html=1;" vertex="1" parent="1">
          <mxGeometry x="460" y="630" width="60" height="120" as="geometry" />
        </mxCell>
        <mxCell id="Vlcp4dhbfAfBj5x9tp1u-49" value="pre-run tasks" style="text;html=1;align=center;verticalAlign=middle;whiteSpace=wrap;rounded=0;" vertex="1" parent="1">
          <mxGeometry x="240" y="590" width="60" height="30" as="geometry" />
        </mxCell>
        <mxCell id="Vlcp4dhbfAfBj5x9tp1u-50" value="post-run tasks" style="text;html=1;align=center;verticalAlign=middle;whiteSpace=wrap;rounded=0;" vertex="1" parent="1">
          <mxGeometry x="460" y="590" width="60" height="30" as="geometry" />
        </mxCell>
        <mxCell id="Vlcp4dhbfAfBj5x9tp1u-51" value="" style="swimlane;startSize=0;" vertex="1" parent="1">
          <mxGeometry x="200" y="540" width="360" height="230" as="geometry" />
        </mxCell>
        <mxCell id="Vlcp4dhbfAfBj5x9tp1u-52" value="&lt;font style=&quot;font-size: 20px;&quot;&gt;Batch&lt;/font&gt;" style="text;html=1;align=center;verticalAlign=middle;whiteSpace=wrap;rounded=0;" vertex="1" parent="Vlcp4dhbfAfBj5x9tp1u-51">
          <mxGeometry x="140" y="10" width="60" height="10" as="geometry" />
        </mxCell>
      </root>
    </mxGraphModel>
  </diagram>
</mxfile>
